<?xml version="1.0" standalone="no"?>
<!DOCTYPE svg PUBLIC "-//W3C//DTD SVG 20010904//EN"
 "http://www.w3.org/TR/2001/REC-SVG-20010904/DTD/svg10.dtd">
<svg version="1.0" xmlns="http://www.w3.org/2000/svg"
 width="720.000000pt" height="720.000000pt" viewBox="0 0 720.000000 720.000000"
 preserveAspectRatio="xMidYMid meet">
<metadata>
Created by potrace 1.14, written by Peter Selinger 2001-2017
</metadata>
<g transform="translate(0.000000,720.000000) scale(0.100000,-0.100000)"
fill="#000000" stroke="none">
<path d="M1070 5381 c0 -68 0 -70 -35 -91 -33 -20 -35 -25 -35 -76 0 -46 4
-56 24 -69 24 -16 24 -18 20 -133 -11 -287 -28 -476 -70 -783 -13 -97 -24
-188 -24 -202 0 -20 -6 -27 -30 -32 -39 -9 -49 -25 -14 -25 22 0 25 -2 14 -15
-9 -11 -9 -19 -2 -28 9 -10 -3 -50 -45 -161 -51 -132 -60 -150 -86 -158 -18
-7 -27 -16 -25 -27 3 -14 20 -16 116 -16 93 0 112 -3 112 -15 0 -13 -17 -14
-104 -12 -127 5 -151 -4 -143 -53 3 -18 1 -37 -4 -42 -5 -5 -38 -90 -73 -188
-60 -168 -66 -180 -91 -183 -18 -2 -25 -8 -23 -20 3 -13 17 -18 68 -20 105 -5
124 2 160 58 43 68 110 126 183 161 52 24 75 29 137 29 90 0 138 -20 206 -82
48 -44 83 -105 84 -145 0 -12 8 -29 17 -39 16 -16 0 -17 -309 -10 -231 6 -328
5 -332 -3 -5 -8 54 -12 201 -13 314 -4 880 3 741 9 -62 3 -76 7 -72 18 4 9 -3
18 -19 24 -28 11 -37 32 -95 221 -22 69 -42 134 -45 145 -7 19 -3 20 92 17
132 -5 222 25 303 101 58 55 78 101 78 179 0 64 -2 70 -35 107 -19 21 -35 41
-35 44 0 3 16 22 35 41 32 33 35 42 35 93 0 42 -6 65 -22 89 -19 27 -40 41
-130 85 -23 12 -225 12 -232 0 -3 -4 -24 -11 -46 -15 -23 -3 -49 -10 -58 -15
-9 -4 -34 -16 -56 -27 -21 -10 -41 -25 -44 -34 -3 -8 -13 -34 -23 -57 -11 -23
-19 -56 -19 -74 0 -30 1 -31 36 -27 l35 4 -6 -135 c-4 -75 -11 -140 -15 -144
-7 -8 -93 213 -109 282 -5 20 -10 41 -11 46 -2 6 0 18 5 28 13 31 -12 47 -76
47 l-59 0 0 63 c0 55 3 67 25 87 l25 23 0 -56 c0 -45 -3 -57 -16 -57 -9 0 -14
-7 -12 -17 2 -10 11 -18 20 -18 9 0 20 -4 24 -8 4 -4 16 -7 26 -7 23 0 23 14
2 185 -28 236 -33 288 -43 445 -24 360 -34 450 -48 450 -7 0 -13 -5 -13 -11 0
-5 -4 -7 -10 -4 -17 10 -11 35 8 35 36 1 52 25 52 79 0 36 -4 51 -13 51 -28 0
-50 38 -44 76 8 47 -2 94 -19 94 -11 0 -14 -17 -14 -69z m60 -151 c0 -5 -12
-10 -27 -9 l-28 1 25 8 c14 4 26 8 28 9 1 1 2 -3 2 -9z m-20 -181 c0 -17 -4
-28 -10 -24 -5 3 -10 17 -10 31 0 13 5 24 10 24 6 0 10 -14 10 -31z m10 -226
c0 -20 -3 -24 -11 -16 -7 7 -9 19 -6 27 10 24 17 19 17 -11z m10 -100 c0 -25
-19 -30 -37 -12 -9 9 -8 18 4 36 18 27 33 16 33 -24z m-21 -107 c-7 -14 -16
-26 -21 -26 -5 0 -1 14 7 31 20 37 31 33 14 -5z m31 -37 c0 -11 -4 -18 -10
-14 -5 3 -7 12 -3 20 7 21 13 19 13 -6z m-63 -21 c-3 -8 -6 -5 -6 6 -1 11 2
17 5 13 3 -3 4 -12 1 -19z m65 -73 c5 -43 -7 -33 -20 18 -9 32 -8 37 3 27 7
-6 15 -26 17 -45z m-48 -66 c-12 -24 -34 -40 -34 -25 0 2 -3 11 -6 20 -4 12 0
16 15 16 25 0 27 13 6 34 -25 25 -17 31 10 6 23 -21 23 -24 9 -51z m29 -54
c-5 -13 -23 -22 -23 -11 0 15 14 35 21 31 4 -3 6 -12 2 -20z m23 -63 c-4 -3
-11 -1 -18 6 -8 8 -8 15 3 28 13 16 14 16 17 -5 2 -13 1 -25 -2 -29z m-96 -31
c0 -6 -4 -13 -10 -16 -5 -3 -10 1 -10 9 0 9 5 16 10 16 6 0 10 -4 10 -9z m98
-42 c-23 -15 -33 9 -12 32 l19 21 3 -22 c2 -13 -2 -26 -10 -31z m-98 -78 c0
-10 -12 -28 -26 -42 l-26 -24 7 40 c4 22 9 43 12 47 7 13 33 -4 33 -21z m36
-89 c-12 -11 -17 7 -9 34 l8 29 3 -28 c2 -16 1 -31 -2 -35z m-52 -7 c-5 -11 2
-15 27 -15 45 0 33 -6 -23 -12 -43 -5 -48 -3 -48 14 0 10 4 17 8 14 4 -2 14
-1 22 5 20 12 20 11 14 -6z m683 -73 c21 -16 28 -37 25 -73 -1 -8 -20 -25 -41
-37 -35 -20 -91 -94 -91 -120 0 -10 33 -24 89 -39 19 -4 38 -15 44 -24 14 -23
1 -61 -28 -82 -22 -16 -124 -42 -132 -33 -6 6 16 301 27 352 11 49 21 58 80
72 3 1 15 -6 27 -16z m-490 -14 c-2 -19 13 -94 34 -175 23 -87 23 -93 5 -93
-18 0 -31 35 -27 72 3 34 -46 127 -74 139 -16 6 -12 8 18 8 20 1 37 5 37 10 0
9 -23 14 -125 28 l-60 8 90 6 c50 3 93 6 96 7 4 1 6 -4 6 -10z m-264 -68 c-3
-11 -9 -20 -13 -20 -5 0 -6 9 -3 20 3 11 9 20 13 20 5 0 6 -9 3 -20z m56 3 c0
-10 -4 -27 -9 -38 -8 -18 -9 -18 -9 6 -1 14 -6 30 -13 37 -9 9 -7 12 10 12 15
0 22 -6 21 -17z m47 2 c-3 -8 -9 -22 -12 -30 -3 -8 -1 -15 5 -15 6 0 11 5 11
11 0 5 5 7 12 3 6 -4 17 1 25 11 12 18 13 18 13 -3 0 -12 -4 -22 -9 -22 -5 0
-23 -3 -40 -6 -30 -6 -31 -6 -31 30 0 26 4 36 16 36 10 0 14 -5 10 -15z m114
-57 c0 -5 -4 -8 -10 -8 -5 0 -10 10 -10 23 0 18 2 19 10 7 5 -8 10 -18 10 -22z
m-220 -34 c0 -17 -24 -34 -36 -26 -7 5 -8 19 -1 42 8 33 10 34 23 15 8 -10 14
-24 14 -31z m165 -71 c3 -49 8 -98 11 -110 4 -22 2 -23 -66 -23 -66 0 -70 1
-70 23 0 16 16 116 30 184 0 4 37 11 62 12 26 1 26 0 33 -86z m95 42 c0 -14
-31 -15 -42 -1 -3 5 -1 15 5 21 13 15 37 1 37 -20z m-235 -33 c-5 -14 -7 -14
-15 -2 -5 9 -4 20 3 28 14 17 22 0 12 -26z m-69 -22 c16 0 19 -26 5 -35 -11
-6 -31 26 -30 47 0 10 2 10 6 1 2 -7 11 -13 19 -13z m54 -52 c0 -18 -2 -20 -9
-8 -6 8 -7 18 -5 22 9 14 14 9 14 -14z m259 -29 c-10 -20 -9 -21 15 -17 14 3
26 1 26 -3 0 -5 9 -9 20 -9 11 0 20 -5 20 -11 0 -6 -7 -8 -16 -5 -9 3 -36 6
-61 6 -39 0 -44 2 -33 15 6 8 10 20 7 27 -2 7 0 22 6 32 8 17 10 18 19 3 6
-11 5 -24 -3 -38z m-339 32 c0 -5 -6 -14 -14 -20 -12 -10 -13 -8 -9 8 5 21 23
30 23 12z m404 -26 l6 -30 -14 25 c-8 14 -12 28 -9 33 7 11 9 7 17 -28z m-331
-32 c-3 -7 -20 -13 -40 -13 -19 0 -32 4 -28 10 3 5 12 7 20 3 10 -3 15 2 15
16 0 18 3 20 19 9 10 -6 17 -18 14 -25z m345 -45 c15 -15 16 -48 1 -48 -6 0
-9 6 -6 14 8 19 -18 40 -39 32 -10 -4 -14 -13 -11 -26 5 -19 0 -20 -87 -20
-84 0 -92 2 -92 19 0 17 10 20 86 26 47 4 90 8 95 10 21 7 41 5 53 -7z m-262
-28 c0 -11 -3 -20 -7 -20 -4 0 -9 9 -12 20 -3 12 0 20 7 20 6 0 12 -9 12 -20z
m312 -85 c20 -23 20 -26 6 -52 l-16 -28 5 26 c4 30 -16 64 -32 54 -6 -3 -11
-13 -11 -21 0 -8 -5 -14 -11 -14 -6 0 -9 -7 -5 -15 11 -29 -12 -15 -33 20 -18
31 -24 35 -47 29 -18 -5 -25 -3 -20 4 3 6 -2 13 -11 15 -10 3 21 5 68 6 79 1
87 -1 107 -24z m-269 -11 c9 -8 -95 -2 -114 6 -12 4 7 6 45 3 36 -3 67 -7 69
-9z m-215 -36 l-18 -33 -6 30 c-4 24 -2 31 15 36 28 8 29 5 9 -33z m-65 -40
c1 -10 -3 -18 -8 -18 -14 0 -20 25 -14 51 6 22 7 22 14 3 4 -10 8 -27 8 -36z
m597 7 c-7 -34 -26 -50 -26 -20 0 18 22 66 28 61 2 -3 1 -21 -2 -41z m-288 28
c-22 -6 -24 -43 -2 -43 9 0 18 9 21 21 4 12 11 18 20 15 8 -3 16 -6 19 -6 2 0
1 -7 -2 -15 -4 -9 0 -15 9 -15 8 0 18 6 20 13 3 6 6 3 6 -8 1 -19 -5 -20 -117
-19 -64 1 -117 5 -117 10 0 5 11 8 24 6 18 -2 22 1 17 13 -7 20 25 34 79 33
22 0 32 -2 23 -5z m142 -63 c0 -5 -5 -10 -11 -10 -5 0 -7 5 -4 10 3 6 8 10 11
10 2 0 4 -4 4 -10z m-345 -27 c-16 -8 -38 -22 -47 -31 -17 -14 -18 -13 -18 11
0 22 5 26 33 30 59 7 62 6 32 -10z m544 -24 c9 -27 9 -30 -4 -19 -8 7 -15 21
-15 31 0 28 7 23 19 -12z m-76 7 c4 -10 1 -13 -9 -9 -15 6 -19 23 -5 23 5 0
11 -7 14 -14z m-593 -29 c0 -5 -4 -5 -10 -2 -5 3 -10 14 -10 23 0 15 2 15 10
2 5 -8 10 -19 10 -23z m-36 -12 c3 -9 -3 -19 -15 -26 -26 -14 -34 -6 -19 20
13 25 26 27 34 6z m720 -32 c8 3 17 -1 20 -9 9 -23 -29 -17 -50 8 -15 18 -16
20 -2 9 10 -7 24 -11 32 -8z m-704 -35 c0 -7 -7 -21 -14 -31 -13 -16 -14 -16
-19 5 -3 12 -4 25 -1 30 8 13 34 9 34 -4z m768 -75 c12 -28 22 -56 22 -60 0
-5 -15 -7 -34 -5 -26 3 -36 10 -40 27 -3 13 -9 30 -12 38 -3 10 2 18 16 22 16
5 19 12 14 28 -11 38 11 5 34 -50z m-819 2 c-1 -29 -1 -29 -9 -5 -4 14 -8 34
-9 45 -1 16 1 17 9 5 5 -8 9 -28 9 -45z m749 30 c-3 -3 -9 2 -12 12 -6 14 -5
15 5 6 7 -7 10 -15 7 -18z m-781 -35 c3 -17 10 -33 14 -36 23 -14 6 -24 -28
-18 -21 4 -39 8 -41 9 -6 5 32 75 40 75 5 0 11 -14 15 -30z"/>
<path d="M1200 3556 c0 -10 9 -16 21 -16 24 0 21 23 -4 28 -10 2 -17 -3 -17
-12z"/>
<path d="M1100 3550 c0 -5 7 -10 15 -10 8 0 15 5 15 10 0 6 -7 10 -15 10 -8 0
-15 -4 -15 -10z"/>
<path d="M1150 3550 c0 -5 5 -10 10 -10 6 0 10 5 10 10 0 6 -4 10 -10 10 -5 0
-10 -4 -10 -10z"/>
<path d="M1052 3398 c5 -15 28 -18 29 -3 0 6 -7 12 -17 13 -10 3 -15 -1 -12
-10z"/>
<path d="M1301 5247 c-32 -16 -27 -33 10 -29 17 2 37 -2 45 -9 9 -7 29 -9 54
-5 36 6 40 4 40 -15 0 -26 33 -22 38 4 6 31 -17 47 -69 47 -26 0 -51 5 -54 10
-8 13 -35 12 -64 -3z"/>
<path d="M1216 5211 c-10 -11 -16 -28 -14 -38 3 -16 14 -18 106 -16 57 0 106
4 110 8 13 12 -23 25 -56 19 -19 -4 -38 -1 -47 6 -14 12 -29 11 -70 -6 -18 -7
-19 -6 -6 10 21 25 -1 42 -23 17z"/>
<path d="M1496 4966 c-45 -46 -60 -55 -110 -66 -82 -17 -120 -35 -150 -70 -39
-47 -31 -87 24 -115 37 -19 59 -19 121 1 66 22 53 37 -25 29 -51 -6 -66 -4
-79 10 -9 9 -17 22 -17 30 0 25 59 63 117 75 77 16 90 23 145 82 45 48 49 50
85 44 23 -4 49 -18 65 -36 33 -36 38 -37 38 -9 0 11 -13 34 -29 50 -25 25 -37
29 -82 29 -49 0 -54 -2 -103 -54z"/>
<path d="M1791 4971 c-15 -10 -7 -31 13 -31 7 0 20 -15 29 -34 8 -19 30 -42
47 -52 42 -25 50 -62 19 -87 -20 -16 -33 -18 -84 -12 -52 5 -68 3 -117 -20
l-57 -26 -45 21 c-53 24 -95 26 -122 5 -18 -13 -16 -14 26 -15 28 0 57 -8 75
-20 40 -26 85 -25 143 4 41 21 57 23 114 19 92 -8 118 9 118 74 0 40 -5 51
-42 89 -24 23 -53 54 -65 68 -24 28 -31 30 -52 17z"/>
<path d="M758 4589 c-29 -16 -21 -29 20 -29 20 -1 53 -9 72 -20 l35 -18 -29
-8 c-17 -4 -43 -2 -62 5 -28 10 -42 9 -83 -6 -38 -13 -53 -15 -62 -6 -19 19 0
34 36 27 37 -7 54 8 35 31 -25 30 -114 11 -125 -27 -16 -50 24 -77 93 -63 20
5 67 7 104 6 71 -2 113 12 104 34 -2 7 2 16 11 19 14 6 14 9 -2 26 -10 11 -26
20 -36 20 -10 0 -21 5 -24 10 -8 13 -65 12 -87 -1z"/>
<path d="M3548 4235 c-2 -3 -33 -11 -69 -18 -71 -14 -69 -12 -86 -139 -5 -44
-4 -48 15 -48 45 0 172 23 186 34 11 7 18 38 22 94 l7 82 -35 0 c-19 0 -37 -2
-40 -5z"/>
<path d="M5630 4215 c-25 -8 -54 -14 -65 -15 -11 0 -29 -7 -39 -15 -19 -14
-19 -28 -17 -267 1 -139 4 -254 6 -257 2 -2 27 2 54 9 44 10 51 15 51 36 0 13
4 32 10 42 5 9 14 49 19 87 5 39 21 124 35 190 13 66 26 138 28 160 4 47 -8
51 -82 30z"/>
<path d="M2243 3996 c-4 -7 -30 -23 -57 -35 -184 -80 -234 -323 -96 -461 142
-142 404 -90 492 97 32 67 32 189 1 254 -31 65 -93 115 -174 139 -78 23 -154
26 -166 6z m136 -182 c22 -21 25 -31 25 -91 0 -79 -20 -124 -62 -145 -22 -12
-33 -12 -58 -2 -46 19 -64 54 -64 122 0 130 80 189 159 116z"/>
<path d="M2840 3994 c-25 -7 -56 -13 -70 -13 -40 -1 -50 -19 -50 -87 0 -35 -4
-65 -9 -68 -5 -3 -12 -72 -15 -153 -4 -82 -12 -160 -18 -175 -6 -15 -7 -39 -4
-54 6 -23 11 -25 39 -21 32 5 164 50 173 60 3 2 9 51 15 108 20 219 29 240
107 255 54 11 56 2 43 -168 -19 -248 -19 -252 3 -256 11 -2 43 4 72 14 30 10
56 15 60 11 4 -3 -3 -25 -15 -48 -12 -23 -20 -47 -18 -54 9 -22 121 -55 186
-55 140 0 201 77 221 280 25 250 28 289 29 359 1 72 0 73 -21 67 -13 -4 -50
-11 -83 -17 -99 -17 -103 -21 -108 -103 -11 -190 -37 -401 -51 -414 -10 -11
-26 -13 -58 -8 l-44 7 8 52 c29 183 36 375 15 417 -20 40 -74 70 -126 70 -52
0 -148 -23 -164 -39 -19 -19 -27 -12 -20 19 5 28 4 30 -23 29 -16 -1 -49 -7
-74 -15z"/>
<path d="M3904 3995 c-4 -8 -10 -15 -16 -15 -5 0 -28 -9 -51 -19 -49 -22 -99
-69 -136 -126 -23 -36 -26 -50 -26 -140 0 -99 0 -100 38 -157 112 -166 382
-157 503 17 22 32 54 135 54 175 0 13 -7 50 -17 83 -24 87 -85 147 -180 175
-85 26 -161 29 -169 7z m123 -177 c63 -59 44 -205 -32 -241 -30 -14 -35 -14
-63 3 -43 26 -52 49 -52 126 0 54 5 75 23 101 12 18 29 34 37 37 25 7 64 -4
87 -26z"/>
<path d="M5345 3990 c-27 -10 -63 -25 -80 -34 -33 -18 -44 -14 -25 10 12 13
11 17 -1 25 -8 5 -19 7 -26 4 -6 -2 -40 -9 -75 -15 -117 -20 -114 -17 -122
-128 -4 -53 -11 -128 -16 -167 -5 -38 -11 -112 -15 -163 -5 -80 -4 -93 11 -99
16 -6 79 12 156 44 41 17 41 16 58 183 6 58 13 114 15 125 7 33 68 65 124 65
28 0 52 4 55 9 4 5 9 43 13 85 7 86 8 85 -72 56z"/>
<path d="M4534 3990 c-11 -5 -46 -11 -77 -15 -84 -11 -89 -17 -97 -127 -4 -53
-10 -101 -14 -106 -3 -6 -7 -57 -7 -114 -1 -119 11 -155 67 -187 48 -29 119
-28 189 3 l55 25 0 -26 c0 -27 10 -28 75 -4 17 6 48 16 70 21 65 16 68 21 77
117 30 344 35 409 29 414 -6 7 -160 -22 -192 -35 -13 -6 -18 -27 -22 -89 -12
-156 -24 -246 -36 -261 -20 -24 -79 -40 -96 -26 -17 14 -20 95 -6 134 14 34
26 272 15 278 -5 3 -18 2 -30 -2z"/>
<path d="M5545 3616 c-91 -17 -93 -19 -101 -112 -4 -48 -3 -84 3 -87 5 -3 27
-1 49 4 21 6 64 16 94 23 l55 12 12 74 c7 41 11 81 8 88 -5 14 -37 14 -120 -2z"/>
<path d="M2426 3174 c-3 -9 -6 -40 -6 -70 0 -63 11 -72 69 -58 34 9 36 11 38
54 3 66 -12 90 -58 90 -24 0 -39 -5 -43 -16z m64 -28 c0 -3 -4 -8 -10 -11 -5
-3 -10 -1 -10 4 0 6 5 11 10 11 6 0 10 -2 10 -4z"/>
<path d="M2570 3114 l0 -75 48 3 c55 4 66 29 17 39 -21 5 -24 7 -9 8 22 1 38
23 27 35 -4 3 -15 6 -25 6 -10 0 -18 5 -18 10 0 6 11 10 23 10 29 0 37 7 30
26 -3 9 -21 14 -49 14 l-44 0 0 -76z"/>
<path d="M2696 3168 c-8 -33 -7 -101 2 -116 13 -20 131 -11 144 11 12 23 33
21 50 -5 15 -22 38 -18 38 6 0 26 -50 126 -63 126 -14 0 -26 -19 -50 -81 -13
-32 -18 -35 -45 -31 -30 4 -31 7 -34 55 -2 38 -7 53 -19 55 -10 2 -19 -6 -23
-20z"/>
<path d="M2986 3175 c-3 -9 -6 -34 -6 -56 0 -29 -4 -39 -16 -39 -23 0 -13 -34
12 -38 35 -5 55 29 52 89 -2 40 -7 55 -19 57 -9 2 -19 -4 -23 -13z"/>
<path d="M3084 3163 c-4 -15 -13 -38 -20 -52 -28 -53 -6 -93 28 -50 l18 24 20
-24 c16 -19 23 -21 35 -11 15 12 13 22 -22 103 -20 45 -49 50 -59 10z"/>
<path d="M3204 3176 c-3 -7 -4 -40 -2 -72 2 -46 7 -60 20 -62 12 -2 18 5 20
25 l4 28 14 -28 c15 -32 47 -33 42 -2 -2 11 -3 38 -3 60 0 21 -5 45 -11 52
-14 17 -77 17 -84 -1z m56 -36 c0 -5 -4 -10 -10 -10 -5 0 -10 5 -10 10 0 6 5
10 10 10 6 0 10 -4 10 -10z"/>
<path d="M3334 3176 c-3 -7 -4 -40 -2 -72 2 -47 7 -59 21 -62 11 -2 17 3 17
17 0 12 11 25 28 33 32 15 42 60 18 83 -18 19 -75 20 -82 1z m56 -36 c0 -5 -4
-10 -10 -10 -5 0 -10 5 -10 10 0 6 5 10 10 10 6 0 10 -4 10 -10z"/>
<path d="M3464 3176 c-3 -7 -4 -40 -2 -72 2 -44 7 -59 18 -59 8 0 17 11 21 25
l6 25 12 -28 c13 -33 48 -34 43 -2 -2 11 -3 38 -3 60 0 21 -5 45 -11 52 -14
17 -77 17 -84 -1z m56 -36 c0 -5 -4 -10 -10 -10 -5 0 -10 5 -10 10 0 6 5 10
10 10 6 0 10 -4 10 -10z"/>
<path d="M3605 3134 c-14 -31 -25 -62 -25 -70 0 -24 23 -28 38 -6 18 28 36 28
55 0 12 -18 18 -20 27 -11 10 9 10 19 0 45 -29 73 -43 98 -56 98 -8 0 -25 -25
-39 -56z"/>
<path d="M3735 3167 c-4 -13 -5 -45 -3 -73 2 -38 7 -50 21 -52 12 -3 20 4 24
18 l6 23 17 -23 c11 -15 23 -21 34 -17 13 5 16 21 16 77 0 63 -2 70 -19 70
-15 0 -21 -8 -24 -32 l-3 -33 -13 33 c-15 38 -48 44 -56 9z"/>
<path d="M3891 3164 c-50 -64 0 -146 73 -118 28 11 18 34 -13 34 -31 0 -43 16
-34 49 4 15 13 21 35 21 42 0 35 34 -8 38 -25 2 -37 -3 -53 -24z"/>
<path d="M4010 3115 c0 -67 2 -76 18 -73 14 3 17 15 17 73 0 58 -3 70 -17 73
-16 3 -18 -6 -18 -73z"/>
<path d="M4083 3164 c-17 -27 -17 -27 17 -56 l35 -29 -30 3 c-21 2 -30 -2 -33
-14 -7 -37 91 -35 103 2 7 24 -10 60 -30 60 -7 0 -17 5 -21 11 -4 6 1 9 12 8
26 -5 44 9 37 26 -3 9 -18 15 -39 15 -25 0 -38 -7 -51 -26z"/>
<path d="M4291 3161 c-24 -33 -26 -50 -9 -85 11 -26 65 -45 87 -31 20 12 12
35 -13 35 -13 0 -29 6 -35 14 -18 22 3 56 34 56 18 0 25 5 25 20 0 16 -7 20
-34 20 -27 0 -39 -7 -55 -29z"/>
<path d="M4421 3161 c-28 -38 -26 -66 4 -96 47 -48 115 -19 115 48 0 74 -79
105 -119 48z m75 -35 c10 -42 -20 -63 -45 -32 -9 11 -10 20 -1 35 15 28 38 26
46 -3z"/>
<path d="M4572 3118 c3 -74 20 -101 36 -57 6 15 11 19 16 10 6 -9 11 -9 21 -1
9 8 14 5 18 -11 4 -13 12 -20 24 -17 15 3 18 14 18 73 0 65 -2 70 -22 73 -17
3 -24 -3 -29 -22 -8 -33 -17 -33 -34 -1 -7 14 -22 25 -32 25 -17 0 -19 -7 -16
-72z"/>
<path d="M4213 3074 c-8 -21 13 -42 28 -27 13 13 5 43 -11 43 -6 0 -13 -7 -17
-16z"/>
</g>
</svg>
