<?xml version="1.0" standalone="no"?><svg xmlns="http://www.w3.org/2000/svg" viewBox="0 0 1440 320"><path fill="#E819FF" fill-opacity="1" d="M0,224L0,288L41.1,288L41.1,32L82.3,32L82.3,256L123.4,256L123.4,320L164.6,320L164.6,288L205.7,288L205.7,96L246.9,96L246.9,160L288,160L288,192L329.1,192L329.1,288L370.3,288L370.3,256L411.4,256L411.4,160L452.6,160L452.6,32L493.7,32L493.7,224L534.9,224L534.9,288L576,288L576,160L617.1,160L617.1,192L658.3,192L658.3,192L699.4,192L699.4,256L740.6,256L740.6,192L781.7,192L781.7,288L822.9,288L822.9,160L864,160L864,128L905.1,128L905.1,96L946.3,96L946.3,128L987.4,128L987.4,192L1028.6,192L1028.6,192L1069.7,192L1069.7,224L1110.9,224L1110.9,96L1152,96L1152,96L1193.1,96L1193.1,192L1234.3,192L1234.3,256L1275.4,256L1275.4,128L1316.6,128L1316.6,64L1357.7,64L1357.7,128L1398.9,128L1398.9,64L1440,64L1440,0L1398.9,0L1398.9,0L1357.7,0L1357.7,0L1316.6,0L1316.6,0L1275.4,0L1275.4,0L1234.3,0L1234.3,0L1193.1,0L1193.1,0L1152,0L1152,0L1110.9,0L1110.9,0L1069.7,0L1069.7,0L1028.6,0L1028.6,0L987.4,0L987.4,0L946.3,0L946.3,0L905.1,0L905.1,0L864,0L864,0L822.9,0L822.9,0L781.7,0L781.7,0L740.6,0L740.6,0L699.4,0L699.4,0L658.3,0L658.3,0L617.1,0L617.1,0L576,0L576,0L534.9,0L534.9,0L493.7,0L493.7,0L452.6,0L452.6,0L411.4,0L411.4,0L370.3,0L370.3,0L329.1,0L329.1,0L288,0L288,0L246.9,0L246.9,0L205.7,0L205.7,0L164.6,0L164.6,0L123.4,0L123.4,0L82.3,0L82.3,0L41.1,0L41.1,0L0,0L0,0Z"></path></svg>